<svg width="160" height="160" viewBox="0 0 160 160" fill="none" xmlns="http://www.w3.org/2000/svg">
<rect width="160" height="160" fill="white"/>
<path d="M108.056 82.5371V81.4677C104.803 81.1849 102.868 79.6604 102.868 77.1894C102.868 74.7184 104.803 73.2186 108.056 72.9236V71.8295H110.335V72.9236C113.589 73.2186 115.511 74.7184 115.511 77.1894C115.511 79.6604 113.589 81.1849 110.335 81.4677V82.5371H108.056ZM108.056 79.4268V74.915C106.195 75.1364 105.222 75.9356 105.222 77.1403C105.222 78.3451 106.195 79.144 108.056 79.3777V79.4268ZM110.335 74.9643V79.4268C112.184 79.2178 113.182 78.4064 113.182 77.1894C113.182 75.9724 112.184 75.161 110.335 74.915V74.9643Z" fill="#020A0A"/>
<path d="M116.753 82.537V74.7921H118.799V79.4758L122.002 74.7921H124.06V82.537H122.015V77.6195L118.725 82.537H116.753Z" fill="#020A0A"/>
<path d="M125.773 82.5367V74.7917H127.819V77.6193H131.035V74.7427H133.08V82.5367H131.035V79.3895H127.819V82.5367H125.773Z" fill="#020A0A"/>
<path d="M139.462 82.5373V81.7382C139.145 82.0685 138.762 82.3282 138.337 82.4999C137.912 82.6714 137.456 82.7512 136.998 82.734C136.642 82.751 136.285 82.6945 135.952 82.5677C135.619 82.4408 135.315 82.2469 135.061 81.9974C134.806 81.7481 134.606 81.4488 134.473 81.1186C134.34 80.7885 134.276 80.4342 134.287 80.0785C134.285 79.7338 134.356 79.3927 134.495 79.0771C134.634 78.7615 134.838 78.4788 135.094 78.247C135.349 78.015 135.651 77.8395 135.979 77.7314C136.307 77.6233 136.654 77.5852 136.998 77.6198C137.452 77.5961 137.906 77.6682 138.331 77.8314C138.756 77.9944 139.141 78.2449 139.462 78.5663V77.5214C139.462 76.7348 138.784 76.2921 137.749 76.2921C136.904 76.2899 136.091 76.616 135.482 77.2019L134.657 75.7635C135.602 74.9539 136.812 74.5169 138.057 74.5342C139.819 74.5342 141.446 75.2348 141.446 77.4724V82.5373H139.462ZM139.462 80.6808V79.7097C139.254 79.4827 138.998 79.3043 138.712 79.1875C138.427 79.0704 138.119 79.0181 137.811 79.0337C137.01 79.0337 136.357 79.4515 136.357 80.2629C136.357 81.0743 137.01 81.3939 137.811 81.3939C138.126 81.3997 138.438 81.3342 138.724 81.2022C139.01 81.0702 139.263 80.8752 139.462 80.6317V80.6808Z" fill="#020A0A"/>
<path d="M143.207 82.5367V74.7917H145.253V77.6193H148.469V74.7427H150.514V82.5367H148.469V79.3895H145.253V82.5367H143.207Z" fill="#020A0A"/>
<path d="M151.738 78.6031C151.72 78.0613 151.815 77.5218 152.016 77.0185C152.217 76.5152 152.521 76.0586 152.907 75.6778C153.294 75.2969 153.755 74.9998 154.262 74.805C154.769 74.6102 155.31 74.5221 155.853 74.5462C156.439 74.5123 157.024 74.6213 157.559 74.8632C158.093 75.1052 158.561 75.473 158.921 75.9354L157.59 77.1646C157.411 76.8981 157.166 76.6815 156.879 76.5351C156.593 76.389 156.273 76.3179 155.952 76.3287C155.381 76.3707 154.847 76.6266 154.458 77.0451C154.068 77.4636 153.851 78.0135 153.851 78.5846C153.851 79.1557 154.068 79.7055 154.458 80.124C154.847 80.5423 155.381 80.7984 155.952 80.8404C156.272 80.8456 156.59 80.7722 156.876 80.6263C157.161 80.4806 157.407 80.2671 157.59 80.0045L158.921 81.2338C158.565 81.7022 158.099 82.0759 157.564 82.3225C157.029 82.5689 156.441 82.6805 155.853 82.6475C155.311 82.6714 154.771 82.5836 154.265 82.3897C153.759 82.1957 153.298 81.8997 152.912 81.52C152.526 81.1404 152.222 80.6855 152.02 80.1837C151.818 79.6818 151.722 79.1436 151.738 78.6031Z" fill="#020A0A"/>
<path d="M103.285 59.5709V37H113.87C118.798 37 121.46 40.307 121.46 44.2778C121.49 45.2664 121.312 46.2504 120.937 47.1661C120.562 48.0817 119.999 48.9087 119.283 49.5935C118.568 50.2783 117.716 50.8056 116.784 51.1415C115.851 51.4774 114.859 51.6142 113.87 51.5432H108.103V59.5709H103.285ZM116.556 44.2778C116.559 43.853 116.473 43.4323 116.304 43.0427C116.134 42.6531 115.885 42.3033 115.571 42.016C115.258 41.7286 114.887 41.5101 114.484 41.3746C114.08 41.239 113.653 41.1894 113.229 41.229H108.103V47.3757H113.229C113.656 47.4138 114.087 47.3616 114.493 47.2224C114.899 47.0832 115.272 46.8601 115.586 46.5678C115.899 46.2756 116.148 45.9205 116.315 45.5259C116.482 45.1314 116.564 44.7061 116.556 44.2778Z" fill="#020A0A"/>
<path d="M129.038 59.5709V41.229H122.421V37H140.472V41.229H133.893V59.5709H129.038Z" fill="#020A0A"/>
<path d="M73.2264 76.1884V48.1773H45.3799L56.2277 37.3307H84.1579V50.9821V65.2673L73.2264 76.1884Z" fill="#020A0A"/>
<path d="M73.2264 109.642H45.3799L56.2277 120.489H84.1579V92.5987L73.2264 81.6682V109.642Z" fill="#020A0A"/>
<path d="M1 65.2673V50.9821V37.3307H28.9396L39.778 48.1773H11.9223V76.1884L1 65.2673Z" fill="#020A0A"/>
<path d="M1 92.5892V120.488H14.9698L28.9396 120.479L39.778 109.633H11.9223V81.6587L1 92.5892Z" fill="#020A0A"/>
</svg>
